<svg width="915" height="353" viewBox="0 0 915 353" fill="none" xmlns="http://www.w3.org/2000/svg">
<g filter="url(#filter0_d)">
<path d="M180 6C160.311 10.9223 142.227 19.5168 124 28.3333C93.4245 43.1233 63.3995 59.2174 35 77.8889C30.3987 80.9141 6.47291 93.1965 9.44445 102.111C10.5622 105.464 14.4273 107.809 17.1111 109.667C26.1887 115.951 35.9832 121.178 45.6667 126.444C72.2384 140.894 99.9282 153.903 124.944 171C141.748 182.484 160.353 196.775 167.333 216.778C175.524 240.249 170.004 267.774 152.389 285.389C133.113 304.664 101.522 313.156 75.7222 318.889C67.1705 320.789 58.5381 322.388 49.8889 323.778C45.6634 324.457 48.8282 324.965 51.4444 325C78.6298 325.367 105.467 329.896 132.667 330C168.227 330.136 203.73 329.532 239.278 328.944C254.542 328.692 269.722 327.07 285 327C296.254 326.948 307.611 327.502 318.833 326.5C323.171 326.113 327.441 326.161 331.778 326C334.212 325.91 331.435 322.866 331 321.778C324.504 305.538 321.902 287.599 320.222 270.333C318.478 252.402 318.472 234.028 319.611 216.056C320.982 194.428 321.748 173.12 322.056 151.444C322.698 106.13 324.168 183.899 321.158 138.747C320.249 125.111 320 55.3333 320 69C320 91.1296 322 100.259 322 122.389C322 130.564 320 155.009 320 146.833C320 137.038 326.018 125.205 332.222 118C356.621 89.6654 398.958 107.246 423.5 125.556C487.515 173.313 499.032 256.92 488 331.389C486.952 338.462 485.697 340.669 494.111 339.5C507.448 337.648 657.177 324.031 670.49 322C690.785 318.904 578.156 332.099 598.5 329.27C619.954 326.287 641.5 327 659.889 324C667.117 324 669.864 320.621 677 322C680.297 322.637 686.833 322 690.222 322M690.222 322C691.764 322 691.215 321.966 690.778 320C685.417 295.878 687 270.059 687 245.5C687 211.577 691 178.004 691 144.111C691 138.869 692.052 139 687.5 139C684.887 139 679.602 140.134 678 137.778C675.887 134.67 676.875 128.732 677 125.222C677.165 120.596 684.509 122 687.5 122C696.782 122 707.905 145 696.222 145C694.506 145 693.738 144.738 692.5 143.5C691.569 142.569 690.931 139.514 690 140.444C687.996 142.449 690.852 155.788 691.556 158.5C695.576 174.006 694 190.858 694 206.778C694 243.132 689 279.145 689 315.556C689 317.123 688.13 321.923 690.222 322ZM690.222 322C697.145 322.256 704.128 322 711.056 322C742.37 322 773.685 322 805 322C819.926 322 834.852 322 849.778 322C855.78 322 853.873 313.441 854.056 308.889C854.359 301.303 856.218 293.896 856.778 286.333C857.513 276.402 857.886 266.439 858.5 256.5C860.378 226.081 860.883 195.247 861 164.778C861.048 152.28 860.387 139.631 861.5 127.167C861.782 124.003 860.112 115.293 862.222 117.667C863.815 119.459 863 123.941 863 126.056C863 131.519 863 136.981 863 142.444C863 160.693 861 178.821 861 197C861 203.593 861 210.185 861 216.778C861 217.96 861 212.466 861 211.778C861 204.129 862.688 197.208 866.556 190.556C872.358 180.575 879.067 171.876 891 169.556C896.482 168.49 900.957 170 906 170" stroke="white" stroke-width="10" stroke-linecap="round" stroke-linejoin="round"/>
</g>
<defs>
<filter id="filter0_d" x="0.18277" y="0.99884" width="914.817" height="351.797" filterUnits="userSpaceOnUse" color-interpolation-filters="sRGB">
<feFlood flood-opacity="0" result="BackgroundImageFix"/>
<feColorMatrix in="SourceAlpha" type="matrix" values="0 0 0 0 0 0 0 0 0 0 0 0 0 0 0 0 0 0 127 0"/>
<feOffset dy="4"/>
<feGaussianBlur stdDeviation="2"/>
<feColorMatrix type="matrix" values="0 0 0 0 0 0 0 0 0 0 0 0 0 0 0 0 0 0 0.25 0"/>
<feBlend mode="normal" in2="BackgroundImageFix" result="effect1_dropShadow"/>
<feBlend mode="normal" in="SourceGraphic" in2="effect1_dropShadow" result="shape"/>
</filter>
</defs>
</svg>
